<?xml version="1.0" standalone="no"?>
<!DOCTYPE svg PUBLIC "-//W3C//DTD SVG 20010904//EN"
 "http://www.w3.org/TR/2001/REC-SVG-20010904/DTD/svg10.dtd">
<svg version="1.0" xmlns="http://www.w3.org/2000/svg"
 width="417.000000pt" height="227.000000pt" viewBox="0 0 417.000000 227.000000"
 preserveAspectRatio="xMidYMid meet">

<g transform="translate(0.000000,227.000000) scale(0.100000,-0.100000)"
fill="#000000" stroke="none">
<path d="M1610 1968 c0 -54 -11 -78 -36 -84 -32 -8 -48 7 -63 56 -6 22 -15 40
-20 40 -13 0 -106 -32 -114 -40 -4 -4 -2 -27 4 -53 10 -37 10 -48 0 -61 -21
-25 -47 -19 -79 20 -35 42 -47 41 -106 -9 l-39 -33 27 -41 c23 -34 26 -45 16
-62 -14 -27 -50 -27 -85 1 -33 26 -44 20 -89 -41 l-31 -43 38 -30 c63 -51 41
-109 -34 -88 -53 15 -56 13 -74 -40 l-17 -50 -94 0 c-87 0 -94 -1 -94 -20 0
-19 7 -20 186 -20 l187 0 -6 -28 c-3 -15 -9 -90 -13 -165 l-7 -137 -173 0
c-146 0 -174 -2 -174 -15 0 -11 19 -15 92 -17 l92 -3 19 -50 c10 -27 20 -52
22 -54 3 -2 25 2 50 9 36 10 48 10 60 0 25 -21 17 -53 -22 -86 l-36 -31 31
-46 c42 -60 49 -63 82 -39 43 32 74 32 90 1 10 -17 7 -27 -15 -59 -15 -21 -24
-44 -20 -49 8 -14 91 -71 102 -71 4 0 19 16 32 35 25 38 59 46 81 20 12 -14
10 -35 -6 -91 -5 -19 2 -24 55 -42 65 -22 72 -20 86 28 11 37 25 50 51 50 29
0 37 -13 44 -70 l5 -45 65 0 65 0 5 49 c9 83 56 90 90 12 l19 -44 58 17 c63
19 72 32 54 82 -25 72 37 94 87 32 l30 -38 51 35 c56 39 60 50 31 87 -26 33
-26 69 1 83 17 10 28 7 60 -14 21 -14 42 -26 46 -26 11 1 73 87 73 101 0 6 -8
17 -17 24 -15 11 -13 16 22 46 61 55 74 61 102 55 25 -7 93 10 93 22 0 4 4 13
9 21 8 12 15 10 40 -11 56 -48 161 -45 176 3 8 24 17 24 40 -1 35 -39 146 -52
209 -26 27 11 36 11 57 0 35 -19 70 -17 95 7 21 20 23 20 49 3 25 -16 77 -21
155 -15 14 1 50 -1 80 -4 65 -7 94 5 127 54 31 46 30 92 -4 132 -21 25 -24 34
-14 37 8 3 26 17 39 31 21 23 23 33 20 82 -4 55 -6 58 -74 122 -47 46 -80 69
-103 73 -43 9 -80 -10 -101 -51 -8 -17 -16 -32 -17 -34 -1 -2 -16 2 -34 8 -27
9 -37 8 -65 -9 -30 -17 -37 -18 -67 -5 -19 8 -70 14 -122 14 -135 1 -141 3
-182 44 l-39 37 -141 0 c-102 0 -150 4 -176 15 -20 8 -46 15 -58 15 -12 0 -27
8 -34 17 -11 15 -18 15 -53 5 -46 -14 -69 -8 -77 19 -8 24 8 52 39 69 14 7 26
19 26 26 0 19 -62 104 -76 104 -6 0 -23 -9 -38 -21 -34 -27 -80 -23 -84 9 -2
12 6 37 17 56 12 18 21 38 21 43 0 10 -85 73 -99 73 -5 0 -22 -16 -38 -37 -25
-30 -34 -35 -55 -30 -33 9 -39 26 -27 72 14 49 8 59 -41 74 -23 7 -48 15 -56
18 -9 3 -20 -10 -34 -41 -34 -80 -81 -74 -90 10 l-5 49 -67 3 -68 3 0 -33z
m268 -144 c144 -48 257 -134 341 -259 49 -73 79 -141 67 -152 -7 -8 -3 -15
-50 82 -80 161 -251 292 -431 330 -282 59 -571 -85 -698 -347 -17 -38 -36 -68
-40 -68 -22 0 46 135 102 203 96 116 245 206 381 232 104 20 231 12 328 -21z
m-53 -19 c168 -43 324 -167 399 -315 l37 -75 -117 -3 -116 -3 -55 60 c-149
166 -397 180 -564 32 -25 -21 -51 -50 -58 -65 -17 -31 -44 -33 -78 -6 -29 22
-119 28 -154 9 -17 -9 -16 -3 10 50 78 154 239 280 410 320 60 15 222 12 286
-4z m975 -443 c0 -38 -17 -52 -61 -52 l-37 0 -8 -147 c-8 -134 -11 -148 -28
-151 -11 -3 -24 2 -30 10 -6 8 -19 17 -29 21 -12 4 -16 14 -13 29 3 13 8 71
11 130 l6 107 -43 3 c-38 3 -43 6 -43 28 0 23 4 25 53 28 28 2 52 7 52 13 0 5
38 9 85 9 l85 0 0 -28z m674 -24 c8 -33 13 -38 38 -38 19 0 28 -5 28 -16 0
-29 -21 -54 -44 -54 -26 0 -36 -29 -36 -106 0 -42 1 -44 25 -38 22 5 25 3 25
-19 0 -36 -25 -57 -69 -57 -63 0 -75 23 -68 130 6 76 4 90 -8 90 -23 0 -19 57
4 70 11 5 25 26 31 45 10 31 16 36 38 33 22 -2 29 -10 36 -40z m-2232 16 c2
-9 -1 -83 -6 -165 l-9 -149 -50 0 -50 0 7 88 c4 48 9 122 13 165 l6 77 43 0
c31 0 43 -4 46 -16z m171 9 c-7 -2 -19 -2 -25 0 -7 3 -2 5 12 5 14 0 19 -2 13
-5z m160 0 c-7 -2 -19 -2 -25 0 -7 3 -2 5 12 5 14 0 19 -2 13 -5z m217 -12
c-35 -19 -43 -17 -89 16 -2 2 25 3 60 3 l64 -1 -35 -18z m320 11 c-8 -4 -28
-16 -43 -26 -20 -13 -31 -16 -36 -8 -3 6 -20 18 -36 26 -29 16 -28 16 50 15
44 0 73 -3 65 -7z m371 -12 c-33 -28 -81 -24 -81 6 0 10 14 14 53 14 l52 -1
-24 -19z m-947 -63 c22 -22 24 -22 34 -6 13 21 70 34 101 24 44 -14 53 -45 45
-159 l-7 -106 -45 0 -45 0 7 95 c6 83 5 96 -9 101 -33 13 -56 -28 -67 -115
l-11 -82 -41 3 -41 3 3 91 c4 92 -2 110 -31 98 -22 -8 -36 -48 -43 -124 l-7
-70 -45 0 -44 0 6 103 c10 154 11 157 52 157 21 0 37 -6 40 -15 5 -13 10 -12
31 5 35 27 88 26 117 -3z m449 -6 c20 -19 22 -31 20 -103 -3 -66 0 -83 14 -93
9 -7 14 -19 10 -28 -5 -14 -24 -16 -139 -14 l-133 2 -3 27 c-2 15 2 37 8 48
14 27 84 59 128 60 25 0 32 4 32 19 0 43 -56 52 -67 10 -4 -16 -12 -19 -37
-17 -33 3 -42 21 -32 62 14 56 152 75 199 27z m245 13 c12 -8 22 -10 22 -5 0
6 16 11 35 11 47 0 54 -22 44 -135 -4 -49 -8 -98 -8 -107 -1 -14 -10 -18 -46
-18 -28 0 -45 4 -45 12 0 9 -3 9 -12 0 -7 -7 -36 -12 -64 -12 -45 0 -56 4 -74
28 -19 23 -21 37 -18 94 3 48 10 75 24 95 38 52 99 67 142 37z m782 -9 c13
-12 20 -31 20 -56 0 -50 -42 -86 -110 -95 -50 -7 -61 -19 -38 -42 15 -15 64
-16 73 -2 10 17 43 11 50 -9 15 -47 -35 -76 -117 -69 -42 4 -57 11 -80 37 -23
26 -28 40 -28 84 0 69 33 134 80 159 43 24 121 20 150 -7z m304 -48 c-3 -12
-22 -36 -41 -52 l-35 -31 41 -63 c22 -35 38 -67 35 -72 -8 -14 -52 -11 -83 6
-16 8 -34 28 -41 45 -7 16 -16 30 -20 30 -3 0 -21 -20 -39 -45 -35 -49 -42
-52 -65 -29 -27 27 -19 60 24 97 22 19 40 38 40 43 0 6 -16 34 -35 64 -19 30
-35 58 -35 63 0 8 62 10 84 1 9 -3 26 -24 38 -45 l21 -39 35 52 35 52 24 -28
c16 -19 22 -35 17 -49z m-836 23 c2 -19 1 -77 -3 -127 l-7 -93 -45 0 -45 0 6
93 c4 50 9 109 12 130 6 37 7 38 42 35 34 -3 37 -6 40 -38z m-1372 -322 c83
-169 202 -274 379 -334 64 -21 100 -27 180 -28 55 0 125 5 155 13 95 23 213
87 290 158 39 36 73 63 76 60 11 -10 -113 -122 -177 -160 -102 -60 -206 -89
-324 -90 -118 0 -198 18 -304 70 -128 62 -289 243 -316 356 -12 47 3 30 41
-45z m1024 57 c7 -8 25 -15 40 -15 15 0 33 7 40 15 11 14 50 22 50 10 0 -2 -7
-23 -16 -45 -18 -45 -42 -56 -101 -47 -45 8 -83 33 -83 55 0 38 46 56 70 27z
m145 -41 c-24 -36 -28 -24 -8 22 12 28 18 34 21 21 2 -10 -4 -29 -13 -43z
m-1066 -39 c23 -4 55 -2 73 4 42 14 117 -5 171 -42 135 -92 317 -90 454 4 61
43 94 40 150 -12 23 -21 53 -41 67 -45 14 -3 26 -10 26 -14 0 -14 -100 -98
-158 -134 -104 -63 -171 -80 -312 -81 -143 0 -211 18 -320 84 -102 61 -212
185 -247 276 -6 17 -3 16 25 -7 17 -14 49 -29 71 -33z"/>
<path d="M1868 1133 c-31 -8 -34 -53 -3 -53 18 0 45 28 45 46 0 14 -10 16 -42
7z"/>
<path d="M2184 1232 c-31 -21 -45 -97 -22 -120 33 -33 78 4 78 64 0 53 -25 77
-56 56z"/>
<path d="M2893 1228 c-16 -20 -26 -58 -14 -58 5 0 22 5 36 10 19 7 26 16 23
32 -3 26 -30 35 -45 16z"/>
</g>
</svg>
